<svg width="294" height="108" viewBox="0 0 294 108" fill="none" xmlns="http://www.w3.org/2000/svg">
<path fill-rule="evenodd" clip-rule="evenodd" d="M42.6227 44.3615H20L35.5398 66.723L51.6596 57.0988L42.6227 44.3615Z" fill="url(#paint0_linear_238_1233)"/>
<path fill-rule="evenodd" clip-rule="evenodd" d="M73.0408 44.3615L35.5398 66.723H57.7962L73.0408 44.3615Z" fill="url(#paint1_linear_238_1233)"/>
<path fill-rule="evenodd" clip-rule="evenodd" d="M20 44.3615H42.6227L51.68 31.6242L35.5398 22L20 44.3615Z" fill="url(#paint2_linear_238_1233)"/>
<path fill-rule="evenodd" clip-rule="evenodd" d="M73.0408 44.3615L35.5398 22H57.7962L73.0408 44.3615Z" fill="url(#paint3_linear_238_1233)"/>
<path d="M275 27.4743C275 27.9617 274.854 28.4381 274.579 28.8433C274.305 29.2486 273.915 29.5644 273.459 29.7509C273.003 29.9374 272.501 29.9862 272.017 29.8911C271.533 29.7961 271.088 29.5614 270.739 29.2167C270.39 28.8721 270.152 28.433 270.056 27.955C269.96 27.477 270.009 26.9815 270.198 26.5313C270.387 26.081 270.707 25.6962 271.117 25.4254C271.528 25.1546 272.01 25.0101 272.504 25.0101C273.166 25.0101 273.801 25.2697 274.269 25.7318C274.737 26.194 275 26.8208 275 27.4743ZM274.664 27.4743C274.662 27.053 274.533 26.6417 274.295 26.2924C274.056 25.9431 273.718 25.6714 273.324 25.5115C272.929 25.3517 272.495 25.3109 272.077 25.3943C271.658 25.4777 271.274 25.6816 270.973 25.9802C270.672 26.2788 270.468 26.6587 270.385 27.072C270.303 27.4854 270.346 27.9136 270.51 28.3027C270.673 28.6917 270.95 29.0241 271.305 29.258C271.66 29.4918 272.077 29.6166 272.504 29.6166C273.078 29.614 273.627 29.3871 274.032 28.9856C274.437 28.5841 274.664 28.0407 274.664 27.4743ZM272.963 27.6855L273.716 28.8321H273.136L272.453 27.7459H272.066V28.8321H271.587V26.1064H272.606C272.717 26.1037 272.827 26.1228 272.93 26.1624C273.033 26.202 273.127 26.2614 273.206 26.3372C273.286 26.413 273.349 26.5036 273.393 26.6039C273.437 26.7041 273.46 26.8119 273.462 26.9211C273.471 27.0842 273.427 27.246 273.338 27.3833C273.248 27.5206 273.117 27.6264 272.963 27.6855ZM272.066 27.3335H272.575C272.629 27.3348 272.682 27.3257 272.732 27.3067C272.782 27.2877 272.828 27.2592 272.867 27.2228C272.905 27.1864 272.936 27.1427 272.958 27.0944C272.98 27.0461 272.992 26.9941 272.993 26.9412C272.992 26.8888 272.98 26.8372 272.958 26.7894C272.936 26.7417 272.905 26.6987 272.866 26.663C272.827 26.6274 272.781 26.5999 272.731 26.582C272.681 26.5641 272.628 26.5563 272.575 26.559H272.066V27.3335ZM181.398 33.0162H185.116V55.2443H181.357L181.398 33.0162ZM167.655 32.5234C165.258 32.5226 162.935 33.3438 161.084 34.8468V33.0162H157.335V55.2443H161.084V42.7121C161.084 40.9915 161.776 39.3414 163.009 38.1248C164.241 36.9082 165.912 36.2247 167.655 36.2247C169.398 36.2247 171.069 36.9082 172.301 38.1248C173.534 39.3414 174.226 40.9915 174.226 42.7121V55.2443H177.985V42.7121C177.985 41.3733 177.718 40.0475 177.198 38.8107C176.679 37.5739 175.918 36.4503 174.959 35.504C173.999 34.5578 172.861 33.8075 171.607 33.2961C170.354 32.7846 169.011 32.5221 167.655 32.5234ZM149.827 33.0062H153.586V54.3994C153.518 57.4559 152.258 60.3685 150.067 62.5293C147.877 64.6901 144.926 65.9322 141.83 65.9963C139.325 66.0601 136.869 65.3061 134.843 63.8512C132.817 62.3963 131.334 60.322 130.624 57.9499H134.699C135.322 59.2859 136.332 60.4102 137.601 61.1815C138.869 61.9528 140.341 62.3366 141.83 62.2849C143.928 62.2147 145.921 61.3603 147.406 59.8945C148.89 58.4288 149.756 56.4611 149.827 54.3894V52.5991C148.151 54.1381 146.056 55.1607 143.8 55.5412C141.544 55.9218 139.224 55.6438 137.125 54.7413C135.027 53.8389 133.241 52.3512 131.986 50.4609C130.732 48.5706 130.064 46.36 130.064 44.1001C130.064 41.8403 130.732 39.6295 131.986 37.7393C133.241 35.849 135.027 34.3613 137.125 33.4589C139.224 32.5564 141.544 32.2784 143.8 32.659C146.056 33.0395 148.151 34.062 149.827 35.6011V33.0062ZM149.827 44.0699C149.827 42.5083 149.358 40.9818 148.479 39.6834C147.6 38.385 146.351 37.373 144.89 36.7754C143.429 36.1778 141.821 36.0215 140.27 36.3261C138.718 36.6308 137.293 37.3827 136.175 38.4869C135.056 39.5912 134.295 40.998 133.986 42.5296C133.678 44.0612 133.836 45.6487 134.441 47.0914C135.047 48.5341 136.072 49.7672 137.387 50.6348C138.702 51.5024 140.248 51.9654 141.83 51.9654C143.942 51.9654 145.968 51.1405 147.467 49.6707C148.965 48.2008 149.813 46.2055 149.827 44.1202V44.0699ZM91.7584 36.1744C93.2814 36.1732 94.7731 36.6013 96.0581 37.4084C97.343 38.2155 98.3678 39.3682 99.0119 40.7307H103.016C102.204 38.0625 100.447 35.7717 98.066 34.2764C95.6851 32.7812 92.8388 32.1813 90.047 32.5864C87.2552 32.9914 84.7041 34.3744 82.8595 36.4827C81.0149 38.591 80 41.284 80 44.0699C80 46.8559 81.0149 49.5489 82.8595 51.6572C84.7041 53.7655 87.2552 55.1484 90.047 55.5535C92.8388 55.9585 95.6851 55.3587 98.066 53.8634C100.447 52.3682 102.204 50.0773 103.016 47.4091H99.0119C98.4059 48.6912 97.462 49.7888 96.2791 50.5874C95.0963 51.386 93.7178 51.8561 92.2879 51.9485C90.8579 52.041 89.4291 51.7524 88.1509 51.113C86.8726 50.4736 85.7918 49.5068 85.0216 48.3138C84.2513 47.1208 83.8199 45.7454 83.7724 44.3314C83.725 42.9174 84.0632 41.5168 84.7518 40.2761C85.4404 39.0353 86.4539 38 87.6865 37.2785C88.9191 36.5569 90.3255 36.1756 91.7584 36.1744ZM128.291 44.0699C128.293 46.3664 127.605 48.6119 126.314 50.5221C125.023 52.4324 123.187 53.9217 121.038 54.8014C118.889 55.6812 116.525 55.9119 114.243 55.4643C111.962 55.0168 109.866 53.9111 108.221 52.2873C106.577 50.6634 105.457 48.5944 105.003 46.3419C104.55 44.0894 104.784 41.7549 105.675 39.6336C106.566 37.5123 108.074 35.6996 110.009 34.425C111.944 33.1504 114.218 32.4711 116.545 32.4731C118.089 32.4771 119.618 32.7815 121.043 33.3691C122.469 33.9567 123.763 34.8159 124.852 35.8976C125.941 36.9792 126.803 38.2621 127.39 39.673C127.976 41.0839 128.276 42.5951 128.27 44.1202L128.291 44.0699ZM124.542 44.0699C124.542 42.5083 124.073 40.9818 123.194 39.6834C122.315 38.385 121.066 37.373 119.605 36.7754C118.144 36.1778 116.536 36.0215 114.984 36.3261C113.433 36.6308 112.008 37.3827 110.89 38.4869C109.771 39.5912 109.01 40.998 108.701 42.5296C108.392 44.0612 108.551 45.6487 109.156 47.0914C109.761 48.5341 110.786 49.7672 112.102 50.6348C113.417 51.5024 114.963 51.9654 116.545 51.9654C118.652 51.9575 120.672 51.1294 122.165 49.6607C123.659 48.192 124.505 46.2012 124.521 44.1202L124.542 44.0699ZM247.26 32.5234C244.863 32.5226 242.54 33.3438 240.689 34.8468V33.0162H236.94V55.2443H240.689V42.7121C240.689 40.9915 241.381 39.3414 242.613 38.1248C243.846 36.9082 245.517 36.2247 247.26 36.2247C249.002 36.2247 250.674 36.9082 251.906 38.1248C253.138 39.3414 253.831 40.9915 253.831 42.7121V55.2443H257.59V42.7121C257.59 41.3733 257.322 40.0475 256.803 38.8107C256.284 37.5739 255.523 36.4503 254.563 35.504C253.604 34.5578 252.465 33.8075 251.212 33.2961C249.959 32.7846 248.616 32.5221 247.26 32.5234ZM229.432 33.0162H233.191V55.2443H229.432V52.6192C228.028 53.8992 226.329 54.8217 224.483 55.3069C222.636 55.792 220.698 55.8251 218.835 55.4032C216.973 54.9813 215.243 54.1173 213.795 52.8859C212.348 51.6546 211.226 50.0932 210.528 48.3371C209.83 46.5811 209.576 44.6834 209.789 42.8086C210.002 40.9338 210.674 39.1386 211.749 37.5787C212.824 36.0187 214.267 34.7411 215.955 33.8567C217.643 32.9723 219.524 32.5077 221.434 32.5033C224.401 32.4999 227.259 33.6069 229.432 35.6011V33.0162ZM229.432 44.08C229.432 42.5184 228.963 40.9919 228.084 39.6935C227.205 38.3951 225.956 37.3831 224.495 36.7855C223.033 36.1879 221.426 36.0315 219.874 36.3362C218.323 36.6408 216.898 37.3928 215.78 38.497C214.661 39.6012 213.9 41.008 213.591 42.5396C213.282 44.0712 213.441 45.6588 214.046 47.1015C214.651 48.5442 215.676 49.7773 216.991 50.6448C218.307 51.5124 219.853 51.9755 221.434 51.9755C222.485 51.9808 223.526 51.7818 224.498 51.3899C225.47 50.998 226.355 50.4208 227.101 49.6914C227.848 48.962 228.441 48.0945 228.848 47.1386C229.255 46.1827 229.467 45.1571 229.472 44.1202L229.432 44.08ZM270.13 36.6773V32.976H264.578V26.9412H260.819V47.8215C260.819 49.7875 261.61 51.673 263.018 53.0631C264.426 54.4533 266.336 55.2342 268.327 55.2342H270.202V51.5329H268.327C267.332 51.5303 266.378 51.1381 265.676 50.4423C264.973 49.7466 264.578 48.8041 264.578 47.8215V36.7176L270.13 36.6773ZM183.282 25C182.788 25 182.305 25.1448 181.895 25.416C181.484 25.6872 181.164 26.0727 180.976 26.5236C180.787 26.9744 180.738 27.4704 180.835 27.9487C180.932 28.427 181.171 28.866 181.521 29.2103C181.871 29.5545 182.317 29.7884 182.802 29.8823C183.287 29.9763 183.789 29.926 184.245 29.738C184.701 29.5499 185.09 29.2325 185.363 28.8259C185.636 28.4194 185.78 27.942 185.778 27.4542C185.778 27.131 185.714 26.8111 185.588 26.5127C185.463 26.2143 185.279 25.9433 185.047 25.7153C184.815 25.4872 184.54 25.3067 184.237 25.1839C183.934 25.0612 183.61 24.9987 183.282 25ZM207.732 33.0464H188.947V36.7578H202.842L188.947 51.5732V55.2745H207.712V51.5732H193.806L207.702 36.7578L207.732 33.0464Z" fill="white"/>
<path d="M263.534 72.2771C262.033 72.2757 260.578 72.7967 259.419 73.7505V72.5906H257.068V86.6825H259.419V78.7352C259.419 77.6439 259.853 76.5973 260.624 75.8257C261.396 75.054 262.443 74.6205 263.534 74.6205C264.625 74.6205 265.672 75.054 266.444 75.8257C267.215 76.5973 267.649 77.6439 267.649 78.7352V86.6825H270V78.7352C269.998 77.0217 269.316 75.3791 268.103 74.1682C266.891 72.9572 265.248 72.2771 263.534 72.2771Z" fill="#06C7CC"/>
<path d="M166.423 79.3636C165.886 79.0852 165.319 78.8683 164.734 78.717C164.122 78.5563 163.505 78.4192 162.894 78.3094C162.334 78.2123 161.78 78.0815 161.236 77.9176C160.789 77.7937 160.38 77.5585 160.049 77.2337C159.883 77.0523 159.758 76.8369 159.683 76.6026C159.608 76.3683 159.584 76.1205 159.614 75.8762C159.644 75.632 159.726 75.3971 159.855 75.1876C159.984 74.9782 160.157 74.7992 160.362 74.663C160.878 74.3025 161.563 74.1203 162.4 74.1203C163.166 74.0956 163.92 74.3129 164.555 74.7414C164.826 74.9173 165.056 75.1475 165.233 75.4173C165.409 75.6872 165.527 75.9908 165.58 76.3089L165.592 76.3912H167.931L167.918 76.2815C167.848 75.6813 167.652 75.1027 167.343 74.5834C167.034 74.0641 166.619 73.6159 166.125 73.2679C165.058 72.5107 163.775 72.1183 162.467 72.1491C160.936 72.1491 159.688 72.5292 158.756 73.2777C158.306 73.6221 157.943 74.0676 157.698 74.5783C157.452 75.089 157.331 75.6503 157.343 76.2168C157.327 76.8152 157.458 77.4084 157.723 77.945C157.952 78.4011 158.3 78.7869 158.73 79.0618C159.168 79.3302 159.634 79.5497 160.119 79.7163C160.637 79.8989 161.17 80.034 161.712 80.1199C162.247 80.2042 162.774 80.3159 163.28 80.4432C163.742 80.5605 164.196 80.7065 164.64 80.8802C165.008 81.0235 165.33 81.2655 165.57 81.5797C165.809 81.911 165.932 82.3119 165.919 82.72C165.924 83.0467 165.848 83.3696 165.698 83.6596C165.547 83.9496 165.327 84.1977 165.057 84.3816C164.469 84.8166 163.685 85.036 162.737 85.036C161.879 85.0659 161.033 84.8215 160.323 84.3385C160.017 84.1263 159.761 83.8504 159.572 83.5297C159.383 83.2091 159.266 82.8513 159.228 82.481V82.3948H157L157.012 82.5025C157.063 83.1538 157.252 83.7869 157.564 84.3607C157.876 84.9346 158.305 85.4364 158.824 85.8335C159.878 86.6466 161.226 87.0601 162.831 87.0601C164.363 87.0601 165.653 86.6447 166.664 85.8237C167.148 85.4522 167.539 84.9727 167.806 84.4233C168.072 83.8739 168.206 83.2698 168.198 82.6593C168.216 81.9423 168.04 81.2338 167.69 80.6078C167.393 80.0822 166.954 79.651 166.423 79.3636Z" fill="#06C7CC"/>
<path d="M176.427 72.2518C175.463 72.2303 174.504 72.4077 173.611 72.7727C172.718 73.1378 171.91 73.6828 171.237 74.3738C169.83 75.7911 169.127 77.5356 169.127 79.6073C169.127 81.6791 169.83 83.4236 171.237 84.8409C172.625 86.2009 174.491 86.9627 176.434 86.9627C178.378 86.9627 180.244 86.2009 181.632 84.8409C183.049 83.4249 183.758 81.6804 183.758 79.6073C183.758 77.5343 183.05 75.7898 181.636 74.3738C180.958 73.6832 180.147 73.1386 179.251 72.7736C178.355 72.4086 177.394 72.231 176.427 72.2518ZM180.15 83.4066C179.665 83.8979 179.087 84.2881 178.449 84.5543C177.812 84.8206 177.128 84.9576 176.437 84.9576C175.747 84.9576 175.063 84.8206 174.425 84.5543C173.788 84.2881 173.21 83.8979 172.724 83.4066C171.757 82.3755 171.219 81.015 171.219 79.6014C171.219 78.1879 171.757 76.8274 172.724 75.7963C173.711 74.8121 175.048 74.2593 176.441 74.2593C177.835 74.2593 179.172 74.8121 180.158 75.7963C181.132 76.8217 181.675 78.1816 181.675 79.5956C181.675 81.0095 181.132 82.3695 180.158 83.3948L180.15 83.4066Z" fill="#06C7CC"/>
<path d="M191.425 65.8773C189.937 65.8773 188.752 66.2986 187.898 67.1333C187.043 67.968 186.62 69.2122 186.62 70.8306V72.451H183.822V74.6201H186.62V86.7683H188.932V74.6201H192.922V72.451H188.932V70.86C188.932 68.9672 189.871 68.0463 191.801 68.0463C192.137 68.0417 192.473 68.0785 192.8 68.1561L192.922 68.1874V66.0321L192.843 66.0164C192.376 65.9217 191.901 65.8751 191.425 65.8773Z" fill="#06C7CC"/>
<path d="M196.689 68.6441H194.56V81.9366C194.56 83.5551 194.976 84.7738 195.808 85.5928C196.64 86.4118 197.795 86.8214 199.274 86.8214C199.735 86.824 200.195 86.7761 200.645 86.6783V84.7326C200.326 84.8167 199.996 84.855 199.666 84.8463C197.687 84.8463 196.698 83.8666 196.699 81.9072V74.5223H200.645V72.5492H196.689V68.6441Z" fill="#06C7CC"/>
<path d="M208.932 83.694L204.38 72.5275H201.895L207.958 86.686H209.923L215.956 72.5275H213.444L208.932 83.694Z" fill="#06C7CC"/>
<path d="M232.021 79.3636C231.484 79.0851 230.918 78.8682 230.332 78.7169C229.723 78.5563 229.104 78.4191 228.492 78.3094C227.933 78.2121 227.38 78.0812 226.837 77.9175C226.389 77.7937 225.981 77.5584 225.649 77.2337C225.483 77.0525 225.357 76.8373 225.282 76.6028C225.206 76.3684 225.183 76.1204 225.212 75.8759C225.242 75.6315 225.325 75.3964 225.454 75.187C225.584 74.9776 225.757 74.7988 225.963 74.663C226.478 74.3024 227.164 74.1202 228.001 74.1202C228.763 74.0975 229.512 74.3148 230.144 74.7413C230.415 74.9166 230.646 75.1466 230.822 75.4166C230.999 75.6866 231.117 75.9905 231.169 76.3089L231.183 76.3911H233.526L233.512 76.2814C233.442 75.681 233.246 75.1022 232.937 74.5829C232.628 74.0636 232.212 73.6154 231.718 73.2679C230.651 72.5111 229.369 72.1187 228.061 72.1491C226.531 72.1491 225.281 72.5292 224.35 73.2777C223.9 73.6219 223.537 74.0674 223.291 74.5781C223.046 75.0887 222.924 75.6502 222.936 76.2168C222.921 76.8151 223.051 77.408 223.316 77.9449C223.546 78.4007 223.895 78.7864 224.325 79.0618C224.762 79.3302 225.228 79.5496 225.714 79.7162C226.232 79.8991 226.765 80.0342 227.307 80.1199C227.84 80.2041 228.367 80.3158 228.874 80.4432C229.336 80.5602 229.789 80.7061 230.232 80.8801C230.601 81.0224 230.924 81.2646 231.163 81.5796C231.403 81.9103 231.527 82.3115 231.514 82.72C231.519 83.0467 231.443 83.3695 231.292 83.6595C231.142 83.9495 230.922 84.1976 230.652 84.3816C230.064 84.8165 229.28 85.036 228.332 85.036C227.473 85.0658 226.628 84.8215 225.918 84.3384C225.612 84.126 225.356 83.8501 225.166 83.5296C224.977 83.209 224.859 82.8513 224.82 82.4809V82.3947H222.595L222.606 82.5025C222.657 83.1539 222.845 83.7873 223.157 84.3613C223.47 84.9353 223.899 85.4369 224.419 85.8335C225.471 86.6466 226.821 87.06 228.426 87.06C229.956 87.06 231.245 86.6446 232.258 85.8237C232.743 85.4522 233.134 84.9726 233.4 84.4232C233.667 83.8738 233.801 83.2698 233.793 82.6592C233.816 81.9439 233.647 81.2354 233.303 80.6078C233.002 80.08 232.558 79.6485 232.021 79.3636Z" fill="#06C7CC"/>
<path d="M248.068 72.2517C247.104 72.2306 246.146 72.4081 245.253 72.7732C244.36 73.1382 243.551 73.683 242.878 74.3737C241.476 75.7871 240.776 77.5316 240.776 79.6073C240.776 81.6829 241.478 83.4274 242.884 84.8408C244.272 86.1979 246.135 86.9578 248.076 86.9578C250.017 86.9578 251.881 86.1979 253.269 84.8408C254.309 83.8137 255.019 82.5 255.309 81.0673C255.6 79.6346 255.456 78.148 254.898 76.7971C254.339 75.4463 253.391 74.2924 252.174 73.4828C250.957 72.6732 249.526 72.2446 248.065 72.2517H248.068ZM251.791 83.4065C251.306 83.8979 250.727 84.2881 250.09 84.5544C249.452 84.8206 248.768 84.9577 248.077 84.9577C247.386 84.9577 246.702 84.8206 246.065 84.5544C245.427 84.2881 244.849 83.8979 244.363 83.4065C243.396 82.3754 242.858 81.0149 242.858 79.6014C242.858 78.1879 243.396 76.8273 244.363 75.7963C245.35 74.812 246.687 74.2593 248.08 74.2593C249.474 74.2593 250.811 74.812 251.797 75.7963C252.77 76.8218 253.313 78.1817 253.313 79.5955C253.313 81.0093 252.77 82.3692 251.797 83.3948L251.791 83.4065Z" fill="#06C7CC"/>
<path d="M218.019 86.6762H220.374V72.5706H218.045L218.019 86.6762Z" fill="#06C7CC"/>
<path d="M219.232 67.4801C218.922 67.4801 218.619 67.572 218.361 67.7443C218.104 67.9165 217.903 68.1613 217.784 68.4478C217.665 68.7342 217.634 69.0494 217.695 69.3534C217.755 69.6575 217.905 69.9368 218.124 70.156C218.343 70.3752 218.622 70.5245 218.926 70.585C219.231 70.6455 219.546 70.6145 219.832 70.4958C220.119 70.3772 220.363 70.1763 220.536 69.9185C220.708 69.6607 220.8 69.3576 220.8 69.0476C220.8 68.6319 220.635 68.2332 220.341 67.9392C220.047 67.6452 219.648 67.4801 219.232 67.4801Z" fill="#06C7CC"/>
<path d="M236.234 86.6762H238.589V72.5706H236.259L236.234 86.6762Z" fill="#06C7CC"/>
<path d="M237.445 67.4801C237.135 67.4801 236.832 67.5721 236.574 67.7443C236.316 67.9166 236.115 68.1614 235.997 68.4478C235.878 68.7342 235.847 69.0494 235.907 69.3535C235.968 69.6575 236.117 69.9368 236.336 70.1561C236.556 70.3753 236.835 70.5246 237.139 70.585C237.443 70.6455 237.758 70.6145 238.045 70.4959C238.331 70.3772 238.576 70.1763 238.748 69.9185C238.92 69.6608 239.012 69.3577 239.012 69.0477C239.014 68.8414 238.974 68.6368 238.896 68.446C238.818 68.2551 238.703 68.0816 238.557 67.9358C238.411 67.7899 238.237 67.6745 238.046 67.5963C237.856 67.5181 237.651 67.4786 237.445 67.4801Z" fill="#06C7CC"/>
<defs>
<linearGradient id="paint0_linear_238_1233" x1="19.4192" y1="54.0407" x2="51.1217" y2="54.0407" gradientUnits="userSpaceOnUse">
<stop stop-color="#3D54CE"/>
<stop offset="1" stop-color="#35CACF"/>
</linearGradient>
<linearGradient id="paint1_linear_238_1233" x1="33.5407" y1="54.0407" x2="71.0999" y2="54.0407" gradientUnits="userSpaceOnUse">
<stop stop-color="#13457D"/>
<stop offset="1" stop-color="#279698"/>
</linearGradient>
<linearGradient id="paint2_linear_238_1233" x1="19.8315" y1="31.6501" x2="51.5576" y2="31.6501" gradientUnits="userSpaceOnUse">
<stop stop-color="#090086"/>
<stop offset="1" stop-color="#2F96A9"/>
</linearGradient>
<linearGradient id="paint3_linear_238_1233" x1="33.5407" y1="31.6501" x2="71.0999" y2="31.6501" gradientUnits="userSpaceOnUse">
<stop stop-color="#3B62CA"/>
<stop offset="1" stop-color="#93DFE3"/>
</linearGradient>
</defs>
</svg>
